<?xml version="1.0" encoding="UTF-8"?>
<svg width="2000" height="285" viewBox="0 0 2000 285" xmlns="http://www.w3.org/2000/svg">
  <path id="6" d="M 427.734,272.750 C 428.273,272.062 453.151,241.630 483.018,205.122 C 528.286,149.790 537.146,138.464 536.266,137.055 C 535.380,135.637 455.222,32.794 439.769,13.250 C 439.769,13.250 434.828,7 434.828,7 C 434.828,7 467.761,7 467.761,7 C 467.761,7 500.693,7 500.693,7 C 500.693,7 535.597,52.186 535.597,52.186 C 554.794,77.038 571.012,97.534 571.638,97.732 C 572.264,97.930 588.650,77.596 608.052,52.546 C 608.052,52.546 643.329,7 643.329,7 C 643.329,7 675.820,7 675.820,7 C 706.672,7 708.233,7.088 706.798,8.750 C 701.550,14.826 604.810,136.337 604.451,137.305 C 604.207,137.962 628.081,168.779 657.504,205.788 C 686.927,242.797 711,273.284 711,273.538 C 711,273.792 696.263,273.988 678.250,273.974 C 678.250,273.974 645.500,273.948 645.500,273.948 C 645.500,273.948 608,226.478 608,226.478 C 587.375,200.370 570.035,179.006 569.467,179.004 C 568.899,179.002 551.139,200.375 530,226.500 C 530,226.500 491.566,274 491.566,274 C 491.566,274 459.160,274 459.160,274 C 433.380,274 426.955,273.744 427.734,272.750" stroke="#E4E4E7" fill="#E4E4E7" stroke-width="1"/>
  <path id="6" d="M 1362.286,273.250 C 1362.508,272.837 1390.723,212.762 1424.984,139.750 C 1424.984,139.750 1487.276,7 1487.276,7 C 1487.276,7 1515.922,7 1515.922,7 C 1515.922,7 1544.568,7 1544.568,7 C 1544.568,7 1608.784,139.763 1608.784,139.763 C 1644.103,212.783 1673,272.858 1673,273.263 C 1673,273.668 1660.464,274 1645.142,274 C 1645.142,274 1617.285,274 1617.285,274 C 1617.285,274 1606.672,251.750 1606.672,251.750 C 1606.672,251.750 1596.058,229.500 1596.058,229.500 C 1596.058,229.500 1518.389,229.244 1518.389,229.244 C 1466.039,229.071 1440.314,229.325 1439.475,230.021 C 1438.790,230.589 1433.810,240.717 1428.407,252.527 C 1428.407,252.527 1418.584,274 1418.584,274 C 1418.584,274 1390.233,274 1390.233,274 C 1374.640,274 1362.063,273.663 1362.286,273.250M 1573.416,184.136 C 1574.032,183.140 1519.570,68.233 1517.452,66.060 C 1516.680,65.268 1515.790,64.877 1515.474,65.193 C 1513.709,66.958 1460.973,182.486 1461.411,183.628 C 1461.848,184.768 1471.325,185 1517.410,185 C 1547.920,185 1573.122,184.611 1573.416,184.136" stroke="#E4E4E7" fill="#E4E4E7" stroke-width="1"/>
  <path id="6" d="M 1075,140.500 C 1075,140.500 1075,7 1075,7 C 1075,7 1149.394,7 1149.394,7 C 1192.068,7 1228.204,7.432 1234.144,8.012 C 1289.799,13.449 1322.113,38.221 1329.602,81.192 C 1330.814,88.148 1331.094,94.165 1330.707,105 C 1330.074,122.739 1327.972,131.553 1321,145.698 C 1312.836,162.261 1297.327,176.990 1279.577,185.038 C 1276.041,186.641 1272.891,188.367 1272.579,188.873 C 1272.267,189.379 1284.518,208.176 1299.805,230.646 C 1315.092,253.116 1327.942,272.062 1328.359,272.750 C 1328.960,273.740 1322.288,274 1296.277,274 C 1296.277,274 1263.435,274 1263.435,274 C 1263.435,274 1238.255,235.989 1238.255,235.989 C 1238.255,235.989 1213.074,197.978 1213.074,197.978 C 1213.074,197.978 1171.287,198.239 1171.287,198.239 C 1171.287,198.239 1129.500,198.500 1129.500,198.500 C 1129.500,198.500 1129.238,236.250 1129.238,236.250 C 1129.238,236.250 1128.976,274 1128.976,274 C 1128.976,274 1101.988,274 1101.988,274 C 1101.988,274 1075,274 1075,274 C 1075,274 1075,140.500 1075,140.500M 1220.630,151.046 C 1238.662,149.554 1250.796,145.001 1260.262,136.172 C 1270.101,126.995 1274.201,117.029 1274.318,102 C 1274.507,77.651 1263.018,63.191 1238,56.292 C 1232.144,54.677 1226.446,54.500 1180.500,54.500 C 1180.500,54.500 1129.500,54.500 1129.500,54.500 C 1129.500,54.500 1129.240,102 1129.240,102 C 1129.097,128.125 1129.195,150.062 1129.458,150.750 C 1130.044,152.279 1202.873,152.515 1220.630,151.046" stroke="#E4E4E7" fill="#E4E4E7" stroke-width="1"/>
  <path id="6" d="M 887.500,277.399 C 859.495,275.226 841.661,271.386 820.891,263.054 C 800.984,255.068 786.535,245.449 772.446,230.801 C 754.721,212.373 744.169,191.394 739.351,165 C 736.981,152.017 736.966,125.734 739.322,113.818 C 750.001,59.808 789.730,21.743 849.079,8.659 C 866.919,4.726 880.516,3.652 904.330,4.294 C 942.267,5.317 968.935,11.405 996.821,25.410 C 1001.945,27.983 1005.994,30.430 1005.819,30.847 C 1005.644,31.264 1000.127,40.424 993.559,51.203 C 993.559,51.203 981.618,70.802 981.618,70.802 C 981.618,70.802 976.438,67.878 976.438,67.878 C 965.926,61.945 947.083,56.190 929.220,53.454 C 917.549,51.667 890.507,51.424 878.969,53.004 C 837.982,58.616 807.861,80.094 797.634,111 C 788.418,138.850 793.778,170.590 811.427,192.671 C 829.275,215.002 859.567,228.115 896.973,229.703 C 925.042,230.895 953.126,225.043 980,212.402 C 988.414,208.444 990.350,207.858 991.060,209.052 C 991.533,209.848 997.052,218.825 1003.324,229 C 1016.673,250.657 1017.114,247.671 999.256,256.530 C 980.530,265.819 956.687,272.773 932.586,275.974 C 923.955,277.120 895.504,278.020 887.500,277.399" stroke="#E4E4E7" fill="#E4E4E7" stroke-width="1"/>
  <path id="1" d="M 68,270.782 C 68,269.797 86.124,160.543 86.315,160.375 C 86.417,160.286 99.550,158.795 115.500,157.063 C 131.450,155.331 145.455,153.519 146.622,153.037 C 150.281,151.524 150.473,147.419 147.133,142.155 C 143.512,136.448 141.703,132.116 140.040,125.175 C 139.147,121.447 138.125,119.572 136.632,118.922 C 132.685,117.204 96.632,108.927 95.308,109.435 C 94.587,109.712 79.324,129.640 61.389,153.719 C 43.454,177.798 28.114,198.175 27.300,199 C 26.486,199.825 33.848,187.222 43.660,170.993 C 53.472,154.764 67.800,131.017 75.500,118.222 C 87.230,98.730 89.824,95.025 91.500,95.369 C 92.600,95.595 103.380,99.862 115.456,104.851 C 127.532,109.840 137.651,113.683 137.943,113.391 C 138.375,112.959 140.444,102.948 141.300,97.143 C 141.499,95.792 98.597,67.042 96.340,67.014 C 95.702,67.006 82.910,79.825 67.913,95.500 C 52.916,111.175 40.486,124 40.291,124 C 40.096,124 41.677,121.637 43.805,118.750 C 45.932,115.863 58.382,98.875 71.471,81 C 84.560,63.125 95.414,48.331 95.592,48.125 C 95.770,47.919 100.971,52.531 107.149,58.375 C 113.327,64.219 118.814,69 119.342,69 C 119.870,69 127.427,64.192 136.134,58.316 C 144.841,52.440 152.117,47.827 152.301,48.066 C 152.485,48.305 154.623,52.943 157.053,58.372 C 159.483,63.801 162.004,68.448 162.655,68.698 C 163.306,68.948 167.138,67.573 171.170,65.643 C 195.741,53.881 224.227,58.459 243.383,77.249 C 247.168,80.962 250.403,84 250.570,84 C 250.737,84 253.378,80.158 256.439,75.462 C 256.439,75.462 262.004,66.925 262.004,66.925 C 262.004,66.925 269.793,72.962 269.793,72.962 C 274.077,76.283 277.858,79 278.193,79 C 278.528,79 282.001,74.050 285.911,68 C 289.821,61.950 293.281,57 293.601,57 C 294.108,57 347.570,104.900 357,113.803 C 361.038,117.615 363.875,119.311 320.834,92.179 C 306.718,83.280 294.547,76 293.787,76 C 293.027,76 290.668,77.780 288.544,79.955 C 285.457,83.116 284.915,84.193 285.849,85.318 C 286.807,86.472 286.599,86.646 284.688,86.281 C 282.772,85.915 280.283,88.001 270.679,98.026 C 270.679,98.026 259,110.216 259,110.216 C 259,110.216 259,116.549 259,116.549 C 259,120.032 259.424,123.144 259.942,123.464 C 260.460,123.784 274.429,118.861 290.983,112.523 C 307.537,106.185 321.401,101.008 321.791,101.017 C 322.181,101.026 331.924,122.964 343.443,149.767 C 354.962,176.570 365.419,200.863 366.681,203.750 C 367.943,206.637 368.802,209 368.591,209 C 368.380,209 356.407,187.612 341.984,161.471 C 321.543,124.421 315.401,114.048 314.130,114.425 C 313.233,114.691 300.800,118.095 286.500,121.990 C 272.200,125.885 259.746,129.301 258.824,129.580 C 257.902,129.859 255.834,132.881 254.229,136.294 C 252.624,139.707 249.004,145.250 246.184,148.612 C 243.364,151.974 241.344,155.011 241.695,155.362 C 242.046,155.713 253.734,156 267.667,156 C 267.667,156 293,156 293,156 C 293,156 293,158.625 293,158.625 C 293,160.069 294.823,184.209 297.051,212.270 C 299.279,240.331 300.966,264.237 300.800,265.395 C 300.634,266.553 296.522,245.675 291.662,219 C 286.802,192.325 282.604,170.275 282.332,170 C 282.060,169.725 271.187,167.193 258.169,164.373 C 258.169,164.373 234.500,159.246 234.500,159.246 C 234.500,159.246 228.704,162.160 228.704,162.160 C 225.516,163.763 222.669,165.846 222.376,166.788 C 218.130,180.437 207.071,189.848 193.249,191.575 C 189.202,192.081 187.516,192.810 186.377,194.548 C 184.836,196.900 180.278,199 176.716,199 C 174.956,199 175.036,198.760 177.417,196.887 C 178.895,195.725 179.968,194.098 179.802,193.272 C 179.477,191.655 168.269,187.716 166.719,188.674 C 165.798,189.243 166.205,192.805 167.606,196.429 C 168.343,198.335 168.319,198.335 165.709,196.429 C 162.535,194.112 159.760,188.789 160.594,186.615 C 160.978,185.614 159.525,183.138 156.579,179.773 C 151.969,174.507 148,166.064 148,161.521 C 148,160.199 147.616,158.881 147.148,158.592 C 145.892,157.816 98.691,168.035 97.389,169.365 C 96.778,169.989 90.084,193 82.513,220.500 C 70.253,265.032 68,272.838 68,270.782M 268.578,94.413 C 273.919,86.186 275.810,82.477 275.100,81.621 C 274.550,80.958 271.361,79.106 268.013,77.506 C 268.013,77.506 261.925,74.597 261.925,74.597 C 261.925,74.597 256.373,80.149 256.373,80.149 C 256.373,80.149 250.820,85.701 250.820,85.701 C 250.820,85.701 253.786,91.601 253.786,91.601 C 255.417,94.846 257.085,99.075 257.493,101 C 259.063,108.410 259.758,107.998 268.578,94.413M 146.344,87.676 C 147.738,85.298 150.956,81.041 153.496,78.216 C 158.846,72.266 158.818,72.108 151.116,64.578 C 151.116,64.578 146.082,59.656 146.082,59.656 C 146.082,59.656 134.491,65.004 134.491,65.004 C 128.116,67.946 122.641,70.771 122.325,71.283 C 121.653,72.370 140.898,92 142.636,92 C 143.282,92 144.950,90.054 146.344,87.676" stroke="#9F9FA9" fill="#9F9FA9" stroke-width="1"/>
  <path id="6" d="M 1716,140.500 C 1716,140.500 1716,7 1716,7 C 1716,7 1792.394,7 1792.394,7 C 1868.518,7 1881.385,7.445 1897.500,10.631 C 1916.295,14.347 1934.947,22.444 1946.725,32 C 1965.114,46.920 1975.382,69.533 1976.692,98 C 1979.024,148.672 1953.848,183.576 1904.961,197.448 C 1888.709,202.060 1884.867,202.328 1826.500,202.926 C 1826.500,202.926 1770.500,203.500 1770.500,203.500 C 1770.500,203.500 1770.237,238.750 1770.237,238.750 C 1770.237,238.750 1769.974,274 1769.974,274 C 1769.974,274 1742.987,274 1742.987,274 C 1742.987,274 1716,274 1716,274 C 1716,274 1716,140.500 1716,140.500M 1869.639,155.934 C 1902.631,152.255 1920,134.516 1920,104.500 C 1920,88.764 1916.688,79.717 1907.335,69.912 C 1901.392,63.682 1893.513,59.283 1883,56.327 C 1877.077,54.662 1871.794,54.500 1823.500,54.500 C 1823.500,54.500 1770.500,54.500 1770.500,54.500 C 1770.500,54.500 1770.240,104.500 1770.240,104.500 C 1770.097,132 1770.195,155.062 1770.458,155.750 C 1771.077,157.366 1855.390,157.523 1869.639,155.934" stroke="#E4E4E7" fill="#E4E4E7" stroke-width="1"/>
</svg>
