<?xml version="1.0" encoding="UTF-8"?>
<svg width="2000" height="285" viewBox="0 0 2000 285" xmlns="http://www.w3.org/2000/svg">
  <path id="11" d="M 432.799,266.750 C 436.059,262.763 460.654,232.725 487.455,200 C 514.256,167.275 536.404,139.968 536.673,139.318 C 537.057,138.389 502.413,93.405 435.734,8.250 C 434.955,7.255 441.477,7 467.642,7 C 467.642,7 500.529,7 500.529,7 C 500.529,7 535.515,52.490 535.515,52.490 C 557.053,80.495 571.068,97.883 571.977,97.730 C 572.789,97.593 589.214,77.128 608.477,52.252 C 608.477,52.252 643.500,7.022 643.500,7.022 C 643.500,7.022 675.809,7.011 675.809,7.011 C 693.579,7.005 707.906,7.338 707.646,7.750 C 707.386,8.163 683.967,37.525 655.603,73 C 627.239,108.475 604.223,138.026 604.455,138.670 C 604.687,139.314 627.523,168.339 655.203,203.170 C 682.883,238.001 706.815,268.188 708.384,270.250 C 708.384,270.250 711.237,274 711.237,274 C 711.237,274 678.332,274 678.332,274 C 678.332,274 645.426,274 645.426,274 C 645.426,274 608.703,227.614 608.703,227.614 C 588.505,202.102 571.291,180.656 570.448,179.957 C 569.548,179.210 568.584,179.059 568.114,179.592 C 567.673,180.091 550.317,201.538 529.545,227.250 C 529.545,227.250 491.777,274 491.777,274 C 491.777,274 459.324,274 459.324,274 C 459.324,274 426.872,274 426.872,274 C 426.872,274 432.799,266.750 432.799,266.750" stroke="#27272A" fill="#27272A" stroke-width="1"/>
  <path id="11" d="M 1363.810,270.250 C 1364.828,268.188 1393.052,208.113 1426.530,136.750 C 1426.530,136.750 1487.399,7 1487.399,7 C 1487.399,7 1515.949,7.011 1515.949,7.011 C 1515.949,7.011 1544.500,7.022 1544.500,7.022 C 1544.500,7.022 1608.187,138.761 1608.187,138.761 C 1643.215,211.218 1672.178,271.295 1672.550,272.266 C 1673.188,273.932 1671.629,274.017 1645.034,273.766 C 1645.034,273.766 1616.842,273.500 1616.842,273.500 C 1616.842,273.500 1606.941,252.626 1606.941,252.626 C 1601.495,241.145 1596.525,231.133 1595.897,230.376 C 1594.945,229.229 1581.849,229 1517.401,229 C 1517.401,229 1440.046,229 1440.046,229 C 1440.046,229 1438.620,231.250 1438.620,231.250 C 1437.835,232.488 1433.023,242.613 1427.926,253.750 C 1427.926,253.750 1418.659,274 1418.659,274 C 1418.659,274 1390.309,274 1390.309,274 C 1390.309,274 1361.959,274 1361.959,274 C 1361.959,274 1363.810,270.250 1363.810,270.250M 1572.989,183.250 C 1572.983,182.288 1560.658,155.625 1545.601,124 C 1524.676,80.050 1517.808,66.500 1516.459,66.500 C 1515.101,66.500 1508.488,79.881 1487.817,124.450 C 1473.035,156.322 1461.164,182.985 1461.438,183.700 C 1461.839,184.745 1472.824,185 1517.469,185 C 1569.694,185 1573,184.896 1572.989,183.250" stroke="#27272A" fill="#27272A" stroke-width="1"/>
  <path id="11" d="M 1075,140.500 C 1075,140.500 1075,7 1075,7 C 1075,7 1146.446,7 1146.446,7 C 1188.234,7 1223.207,7.442 1230.696,8.064 C 1285.357,12.605 1317.590,34.410 1328.161,74 C 1330.113,81.309 1330.435,85.022 1330.465,100.500 C 1330.496,116.296 1330.210,119.602 1328.134,127.500 C 1321.148,154.071 1306.412,171.728 1280.250,184.876 C 1275.713,187.156 1272,189.262 1272,189.555 C 1272,189.983 1290.500,217.355 1326.200,269.750 C 1326.200,269.750 1329.096,274 1329.096,274 C 1329.096,274 1296.163,274 1296.163,274 C 1296.163,274 1263.230,274 1263.230,274 C 1263.230,274 1238.058,235.989 1238.058,235.989 C 1238.058,235.989 1212.887,197.978 1212.887,197.978 C 1212.887,197.978 1171.193,198.239 1171.193,198.239 C 1171.193,198.239 1129.500,198.500 1129.500,198.500 C 1129.500,198.500 1129.238,236.250 1129.238,236.250 C 1129.238,236.250 1128.976,274 1128.976,274 C 1128.976,274 1101.988,274 1101.988,274 C 1101.988,274 1075,274 1075,274 C 1075,274 1075,140.500 1075,140.500M 1234.634,149.698 C 1258.445,143.406 1270.965,130.399 1274.033,108.765 C 1276.970,88.054 1268.293,70.199 1251.086,61.549 C 1237.730,54.834 1234.308,54.500 1179,54.500 C 1179,54.500 1129.500,54.500 1129.500,54.500 C 1129.500,54.500 1129.240,102 1129.240,102 C 1129.097,128.125 1129.208,150.096 1129.487,150.825 C 1130.304,152.957 1226.189,151.929 1234.634,149.698" stroke="#27272A" fill="#27272A" stroke-width="1"/>
  <path id="11" d="M 878,276.979 C 850.780,274.145 830.166,268.501 809.500,258.223 C 771.292,239.221 747.815,208.169 739.372,165.464 C 736.910,153.014 736.886,125.787 739.326,114 C 748.133,71.450 773.214,39.864 813.077,21.124 C 840.211,8.368 869.295,3.092 905.500,4.357 C 940.766,5.589 967.691,11.607 993.500,24.024 C 999,26.670 1004.099,29.259 1004.830,29.776 C 1005.863,30.507 1003.542,35.043 994.427,50.108 C 987.974,60.773 982.406,69.835 982.053,70.244 C 981.700,70.653 978.411,69.394 974.744,67.447 C 956.628,57.827 929.366,52.047 902,52.024 C 846.070,51.976 807.001,75.820 795.772,116.856 C 792.670,128.191 792.702,150.251 795.836,161.912 C 805.514,197.915 836.189,222.100 880.438,228.615 C 896.367,230.960 922.150,230.069 938.570,226.605 C 952.929,223.576 968.020,218.485 980.851,212.344 C 985.994,209.882 990.328,208.010 990.481,208.184 C 992.992,211.029 1014.050,247.425 1013.705,248.325 C 1012.993,250.180 992.986,260.240 981.500,264.518 C 969.024,269.164 952.826,273.299 938.500,275.493 C 925.700,277.453 890.792,278.311 878,276.979" stroke="#27272A" fill="#27272A" stroke-width="1"/>
  <path id="1" d="M 68.086,246.878 C 67.975,246.075 86.031,136.635 86.322,136.344 C 86.443,136.223 100.099,134.576 116.667,132.685 C 133.235,130.794 147.254,128.961 147.819,128.612 C 148.384,128.263 149.129,126.689 149.475,125.115 C 149.955,122.929 149.407,121.220 147.156,117.877 C 145.535,115.470 143.204,110.350 141.977,106.500 C 137.910,93.741 139.985,95.158 117.476,89.767 C 106.489,87.135 96.731,85.099 95.790,85.241 C 94.849,85.383 79.174,105.525 60.957,130 C 42.740,154.475 27.357,174.950 26.774,175.500 C 25.388,176.808 25.601,176.449 60,119.695 C 76.225,92.925 89.950,71.015 90.500,71.005 C 91.050,70.995 101.519,75.075 113.764,80.072 C 126.009,85.069 136.567,88.978 137.226,88.758 C 137.885,88.538 138.922,85.690 139.530,82.429 C 140.138,79.168 140.972,75.490 141.383,74.256 C 142.060,72.223 140.734,71.103 127.316,62.370 C 119.167,57.067 109.200,50.539 105.166,47.864 C 101.132,45.189 97.234,43 96.503,43 C 95.772,43 84.493,54.138 71.439,67.750 C 58.385,81.363 45.705,94.525 43.261,97 C 40.817,99.475 51.570,84.072 67.158,62.771 C 82.746,41.470 95.820,24.145 96.212,24.271 C 96.604,24.397 101.856,29.112 107.885,34.750 C 113.914,40.388 119.152,45 119.525,45 C 119.898,45 127.119,40.275 135.570,34.500 C 144.021,28.725 151.298,24 151.742,24 C 152.186,24 154.543,28.531 156.980,34.068 C 159.417,39.605 161.809,44.382 162.296,44.683 C 162.783,44.984 166.664,43.595 170.921,41.598 C 196.017,29.821 223.934,34.156 242.922,52.778 C 247.004,56.781 250.654,59.706 251.035,59.278 C 251.416,58.850 254.071,54.985 256.936,50.688 C 260.573,45.233 262.501,43.150 263.323,43.787 C 263.971,44.288 267.556,47.073 271.292,49.974 C 275.028,52.875 278.320,55.014 278.608,54.726 C 278.896,54.438 282.363,49.247 286.315,43.191 C 286.315,43.191 293.500,32.179 293.500,32.179 C 293.500,32.179 325,60.640 325,60.640 C 342.325,76.293 357.175,89.833 358,90.728 C 359.791,92.671 362.963,94.605 323.653,69.781 C 323.653,69.781 293.676,50.850 293.676,50.850 C 293.676,50.850 289.088,55.463 289.088,55.463 C 289.088,55.463 284.500,60.076 284.500,60.076 C 291.746,64.549 286.529,63.304 282.978,61.553 C 282.978,61.553 270.989,73.511 270.989,73.511 C 270.989,73.511 259,85.469 259,85.469 C 259,85.469 259,92.175 259,92.175 C 259,95.864 259.385,99.120 259.856,99.411 C 260.327,99.702 274.164,94.784 290.606,88.484 C 307.048,82.184 320.950,77.023 321.500,77.016 C 322.237,77.006 362.421,168.368 368.307,183.435 C 370.336,188.630 365.678,180.478 342.060,137.500 C 328.157,112.200 316.457,91.149 316.062,90.721 C 315.667,90.293 302.338,93.490 286.443,97.826 C 286.443,97.826 257.543,105.710 257.543,105.710 C 257.543,105.710 254.155,112.402 254.155,112.402 C 252.292,116.082 248.536,121.535 245.808,124.520 C 243.080,127.505 241.134,130.408 241.483,130.973 C 241.890,131.632 251.232,132 267.559,132 C 267.559,132 293,132 293,132 C 293,132 293,134.625 293,134.625 C 293,136.069 294.823,160.209 297.051,188.270 C 299.279,216.331 300.966,240.232 300.801,241.385 C 300.636,242.538 296.536,221.660 291.691,194.990 C 286.846,168.320 282.571,146.209 282.191,145.852 C 281.811,145.495 270.854,142.911 257.842,140.110 C 257.842,140.110 234.184,135.016 234.184,135.016 C 234.184,135.016 228.467,138.258 228.467,138.258 C 223.392,141.136 222.524,142.110 220.735,146.937 C 216.970,157.098 206.733,164.869 193.990,167.239 C 189.422,168.089 187.395,168.994 186.292,170.678 C 185.468,171.935 183.153,173.419 181.147,173.976 C 175.560,175.528 174.466,175.208 177.417,172.887 C 181.327,169.811 180.327,168.025 173.515,165.920 C 166.388,163.718 165.172,164.396 166.792,169.674 C 167.421,171.722 167.806,173.527 167.649,173.684 C 167.492,173.841 165.887,172.446 164.082,170.584 C 161.574,167.997 160.800,166.325 160.800,163.497 C 160.800,160.559 160.009,158.981 156.962,155.841 C 152.432,151.173 149.017,144.542 148.268,138.959 C 147.972,136.755 147.371,134.729 146.931,134.457 C 145.664,133.674 98.625,143.967 97.375,145.300 C 96.756,145.960 90.282,168.100 82.988,194.500 C 68.985,245.185 68.222,247.864 68.086,246.878M 268.376,70.653 C 274.744,60.865 275.870,58.547 274.852,57.321 C 272.999,55.088 261.858,49.725 261.042,50.673 C 260.651,51.128 258.234,53.795 255.670,56.599 C 255.670,56.599 251.009,61.698 251.009,61.698 C 251.009,61.698 253.896,67.599 253.896,67.599 C 255.484,70.845 257.336,75.899 258.011,78.831 C 258.686,81.763 259.560,83.788 259.953,83.331 C 260.346,82.874 264.137,77.169 268.376,70.653M 147.280,62.250 C 149.240,59.088 152.454,54.949 154.422,53.054 C 156.390,51.159 158,49.211 158,48.726 C 158,47.287 147.609,36.048 146.255,36.023 C 144.549,35.991 124.853,45.031 123.027,46.684 C 121.758,47.833 122.932,49.400 131.508,58.008 C 136.983,63.503 141.969,68 142.589,68 C 143.209,68 145.320,65.412 147.280,62.250" stroke="#52525B" fill="#52525B" stroke-width="1"/>
  <path id="11" d="M 1716,140.432 C 1716,140.432 1716,6.865 1716,6.865 C 1716,6.865 1797.750,7.260 1797.750,7.260 C 1869.268,7.606 1880.792,7.872 1889.822,9.381 C 1937.649,17.375 1964.562,39.183 1974.238,77.783 C 1977.415,90.456 1977.408,117.571 1974.225,130.274 C 1965.611,164.648 1943.289,186.521 1905.709,197.411 C 1887.768,202.610 1878.961,203.242 1822.500,203.376 C 1822.500,203.376 1770.500,203.500 1770.500,203.500 C 1770.500,203.500 1770.237,238.750 1770.237,238.750 C 1770.237,238.750 1769.974,274 1769.974,274 C 1769.974,274 1742.987,274 1742.987,274 C 1742.987,274 1716,274 1716,274 C 1716,274 1716,140.432 1716,140.432M 1872.634,155.918 C 1896.536,152.594 1912.053,140.847 1917.909,121.645 C 1920.481,113.211 1920.739,98.256 1918.462,89.515 C 1914.032,72.506 1901.049,60.972 1881.043,56.272 C 1874.336,54.696 1867.789,54.500 1822,54.500 C 1822,54.500 1770.500,54.500 1770.500,54.500 C 1770.500,54.500 1770.240,104.500 1770.240,104.500 C 1770.097,132 1770.195,155.062 1770.458,155.750 C 1771.087,157.392 1860.976,157.540 1872.634,155.918" stroke="#27272A" fill="#27272A" stroke-width="1"/>
</svg>
